<svg xmlns="http://www.w3.org/2000/svg" width="20.959" height="21.556" viewBox="0 0 20.959 21.556">
  <g id="dislike-svgrepo-com_1_" data-name="dislike-svgrepo-com (1)" transform="translate(0)">
    <path id="Path_10317" data-name="Path 10317" d="M7.257,6.9A3.181,3.181,0,0,1,7.068,6,2.87,2.87,0,0,1,8.091,3.66,2.755,2.755,0,0,1,8.4,1.933,3.929,3.929,0,0,1,11.2.188,13.058,13.058,0,0,1,14.808.062a45.391,45.391,0,0,1,6.009.329l1.059.126A1.872,1.872,0,0,1,22.959.175h2.75A1.877,1.877,0,0,1,27.584,2.05V9.376a1.877,1.877,0,0,1-1.875,1.875h-2.75a1.86,1.86,0,0,1-.893-.225,4.843,4.843,0,0,1-.884,1.325.482.482,0,0,1-.072.063c-1.416,1.086-3.084,5-3.674,6.6a3.08,3.08,0,0,1-.379,2.15,1.125,1.125,0,0,1-.87.4,2.871,2.871,0,0,1-2.295-1.113c-.708-.983-.748-2.452-.117-4.373a7.865,7.865,0,0,0,.564-2.619c-.243.054-.482.1-.712.144h0a14.148,14.148,0,0,1-2.218.284,4.972,4.972,0,0,1-3.62-.866,2.4,2.4,0,0,1-.573-2.772,2.749,2.749,0,0,1-.586-1.551A2.739,2.739,0,0,1,7.257,6.9Zm15.7,3.138h2.75a.659.659,0,0,0,.658-.658V2.055a.659.659,0,0,0-.658-.658h-2.75a.659.659,0,0,0-.658.658V9.38A.656.656,0,0,0,22.959,10.039Zm-14.5.437a1.806,1.806,0,0,0-.212.591,1.1,1.1,0,0,0,.365,1.055c.861.784,3.341.6,4.725.3l.059-.014c.248-.045.514-.1.784-.158a.983.983,0,0,1,.983.176c.6.532.532,1.74-.221,4.035-.5,1.506-.514,2.642-.054,3.277a1.612,1.612,0,0,0,1.271.609,2.746,2.746,0,0,0,.059-1.307.691.691,0,0,1,.027-.3c.086-.23,2.065-5.649,4.089-7.253a3.824,3.824,0,0,0,.839-1.546,1.907,1.907,0,0,1-.086-.559V2.055a1.91,1.91,0,0,1,.041-.4L20.669,1.6h0a44.43,44.43,0,0,0-5.861-.32h-.063a11.868,11.868,0,0,0-3.286.1A2.836,2.836,0,0,0,9.471,2.515,1.573,1.573,0,0,0,9.34,3.7a.6.6,0,0,1-.207.69A1.724,1.724,0,0,0,8.492,6.7a.594.594,0,0,1-.081.735,1.7,1.7,0,0,0-.564,1.208,1.675,1.675,0,0,0,.5,1.059A.594.594,0,0,1,8.456,10.476Z" transform="translate(-6.625 0)" fill="#f0862e"/>
  </g>
</svg>
