<svg xmlns="http://www.w3.org/2000/svg" width="20.957" height="21.559" viewBox="0 0 20.957 21.559">
  <g id="like-svgrepo-com" transform="translate(-6.675)">
    <path id="Path_10316" data-name="Path 10316" d="M27,14.656a2.678,2.678,0,0,0,.627-1.79,2.75,2.75,0,0,0-.586-1.551,2.41,2.41,0,0,0-.573-2.773,4.978,4.978,0,0,0-3.62-.866,14.148,14.148,0,0,0-2.218.284h0c-.225.041-.464.09-.708.144a7.865,7.865,0,0,1,.564-2.619c.631-1.921.6-3.39-.117-4.373A2.866,2.866,0,0,0,18.072,0a1.132,1.132,0,0,0-.87.4,3.033,3.033,0,0,0-.379,2.15c-.6,1.6-2.263,5.509-3.674,6.6a.483.483,0,0,0-.072.063,4.843,4.843,0,0,0-.884,1.325,1.86,1.86,0,0,0-.893-.225H8.55a1.877,1.877,0,0,0-1.875,1.875v7.326A1.877,1.877,0,0,0,8.55,21.383H11.3a1.872,1.872,0,0,0,1.082-.343l1.059.126a45.391,45.391,0,0,0,6.01.329c.536.041,1.041.063,1.51.063a10.115,10.115,0,0,0,2.1-.189,3.92,3.92,0,0,0,2.8-1.74,2.759,2.759,0,0,0,.307-1.727,2.876,2.876,0,0,0,1.023-2.34A3.045,3.045,0,0,0,27,14.656ZM8.55,20.165a.659.659,0,0,1-.658-.658v-7.33a.659.659,0,0,1,.658-.658H11.3a.659.659,0,0,1,.658.658V19.5a.659.659,0,0,1-.658.658H8.55Zm17.3-6.037a.606.606,0,0,0-.081.735,1.876,1.876,0,0,1,.207.753,1.8,1.8,0,0,1-.848,1.56.614.614,0,0,0-.207.694,1.592,1.592,0,0,1-.122,1.163,2.82,2.82,0,0,1-1.993,1.145,11.877,11.877,0,0,1-3.287.1h-.063a44.5,44.5,0,0,1-5.861-.32h0l-.455-.054a1.91,1.91,0,0,0,.041-.4v-7.33a1.907,1.907,0,0,0-.086-.559,3.768,3.768,0,0,1,.839-1.546c2.024-1.6,4-7.019,4.089-7.254a.571.571,0,0,0,.027-.3A2.817,2.817,0,0,1,18.1,1.208a1.617,1.617,0,0,1,1.271.609c.46.636.442,1.772-.054,3.278-.757,2.295-.821,3.5-.221,4.035a.983.983,0,0,0,.983.176c.275-.063.536-.117.784-.158l.059-.014c1.384-.3,3.864-.487,4.725.3a1.3,1.3,0,0,1,.153,1.646.6.6,0,0,0,.108.784,1.708,1.708,0,0,1,.5,1.05A1.674,1.674,0,0,1,25.849,14.129Z" transform="translate(0 0)" fill="#f0862e"/>
  </g>
</svg>
