<svg xmlns="http://www.w3.org/2000/svg" width="20.599" height="22.302" viewBox="0 0 20.599 22.302">
  <path id="write-svgrepo-com" d="M17.313,14.086l.06-.079.017-.022ZM23.38,2.792c0,.567-.014,1.134-.02,1.7s-.009,1.115-.052,1.673a15.936,15.936,0,0,1-.262,1.776A9.261,9.261,0,0,1,22.628,9.5c-.248.66-.548,1.3-.838,1.945a15.088,15.088,0,0,1-.908,1.725,12.629,12.629,0,0,1-1.293,1.706c-.208.237-.427.464-.636.7s-.441.5-.665.747a.685.685,0,0,1-.968-.97c.363-.339.691-.719,1.038-1.079.313-.328.613-.666.894-1.022a12.489,12.489,0,0,0,1.123-1.775c.17-.332.325-.671.485-1.01.13-.276.262-.549.386-.827a10.329,10.329,0,0,0,.467-1.418c.031-.131.053-.266.079-.4a26.5,26.5,0,0,1-1.759,2.742c-.4.578-.832,1.138-1.262,1.7-.445.578-.918,1.134-1.363,1.71l.049-.064-.081.1c-.262.336-.53.665-.8,1a.667.667,0,0,1-.491.2.734.734,0,0,1-.072-.014.625.625,0,0,1-.173.086.663.663,0,0,1-.445-.042l.007,0-.064-.024c-.429.522-.877,1.023-1.341,1.516s-.9.984-1.363,1.468-.957.951-1.45,1.413-.992.922-1.5,1.365c-.491.425-.987.84-1.463,1.279-.253.236-.5.477-.763.7a9.112,9.112,0,0,1-.935.682.614.614,0,0,1-.62.009.681.681,0,0,1-.722.01c-.179-.13-.354-.269-.529-.405l-.314.415a.728.728,0,0,1-.4.306.687.687,0,0,1-.515-.069.671.671,0,0,1-.239-.915c.126-.177.256-.352.385-.526.02-.028.044-.047.065-.072-.016-.016-.035-.029-.052-.045a.739.739,0,0,1-.082-.934c.009-.02.009-.042.02-.062.188-.355.4-.7.6-1.049.172-.3.352-.6.53-.9.357-.6.739-1.183,1.126-1.764s.769-1.142,1.182-1.693c.439-.591.889-1.174,1.343-1.754.441-.564.874-1.135,1.333-1.685s.918-1.079,1.394-1.6a.752.752,0,0,1-.07-.537.709.709,0,0,1,.138-.257.561.561,0,0,1,.09-.277A9.729,9.729,0,0,1,12.09,8.8c.27-.28.537-.563.808-.841a20.169,20.169,0,0,1,1.809-1.637c.575-.461,1.151-.927,1.758-1.347s1.2-.8,1.828-1.162c.3-.174.589-.347.894-.5.324-.166.654-.317.988-.461a19.768,19.768,0,0,1,2.154-.823A.644.644,0,0,1,22.515,2a.7.7,0,0,1,.449.174A.678.678,0,0,1,23.38,2.792ZM14.11,14.64c-.046-.027-.094-.05-.139-.079a7.858,7.858,0,0,1-1.263-1.041,7.332,7.332,0,0,1-.968-1.146c-.032-.05-.055-.106-.085-.158-.436.475-.874.949-1.29,1.44-.493.581-.958,1.189-1.424,1.79Q7.761,17,6.677,18.62c-.361.541-.708,1.093-1.047,1.649-.169.277-.33.558-.489.838-.08.142-.157.285-.238.427.161.152.321.3.486.451s.368.306.55.461c.141-.089.281-.179.418-.278.389-.311.748-.654,1.113-.99.389-.358.79-.7,1.191-1.044.5-.43,1-.861,1.494-1.3s1-.9,1.465-1.387.938-1.015,1.4-1.529c.24-.267.48-.537.714-.81C13.863,14.954,13.986,14.8,14.11,14.64Zm7.4-9.662a9.275,9.275,0,0,0,.405-1.349c-.387.133-.77.273-1.15.428-.354.15-.713.3-1.05.484-.365.2-.728.406-1.082.624q-1.039.639-2.014,1.373a23.95,23.95,0,0,0-2.227,1.906c-.355.357-.7.722-1.047,1.087-.321.339-.659.665-.96,1.021.066.156.134.312.2.468a4.992,4.992,0,0,0,.224.467,3.755,3.755,0,0,0,.261.4,8.272,8.272,0,0,0,1.215,1.2,6.3,6.3,0,0,0,1.216.79c.053.022.1.046.156.068q.453-.534.886-1.083c.284-.357.577-.707.858-1.064q.371-.481.746-.959c.541-.7,1.05-1.433,1.534-2.174a15.261,15.261,0,0,0,1.273-2.3C21.141,5.906,21.337,5.445,21.509,4.978Z" transform="translate(-2.931 -1.85)" fill="#fff" stroke="#fff" stroke-width="0.3"/>
</svg>
