<svg xmlns="http://www.w3.org/2000/svg" width="25.41" height="24.575" viewBox="0 0 25.41 24.575">
  <path id="edit-clear-svgrepo-com" d="M11.613,12.533a2.279,2.279,0,0,0-.841,3.118l4.854,8.408-3.911,2.258a2.273,2.273,0,0,0-.834,3.114l1.327,2.3,1.906-1.1c.755,1.1,1.73,2.5,2.611,3.674a8.186,8.186,0,0,0,1.683,2.109,2.35,2.35,0,0,0,1.4.386,6.3,6.3,0,0,0,1.667-.348.921.921,0,0,0,.1-.035L32.754,31.36c.7-.316,1.259-.547,1.684-.723a4.407,4.407,0,0,0,.981-.458.827.827,0,0,0,.347-.391.988.988,0,0,0,.1-.611,1,1,0,0,0-.306-.529.839.839,0,0,0-.446-.241,1.77,1.77,0,0,0-.251-.046c-.314-.041-.692-.047-1.264-.076l-2.886-.152a3.664,3.664,0,0,1-2.165-1.607l-2.061-3.037,1.214-.7-1.327-2.3a2.279,2.279,0,0,0-3.12-.831l-3.668,2.118-4.854-8.408a2.273,2.273,0,0,0-3.114-.834Zm4.1,17.175,9.174-5.3,2.141,3.148a4.875,4.875,0,0,0,3.592,2.41l.659.035L20.927,34.692c-.008,0-.009,0-.016,0a5.267,5.267,0,0,1-1.166.267c-.21.007-.206-.01-.274-.058-.137-.1-.527-.705-1.272-1.7-.8-1.071-1.741-2.409-2.491-3.495Z" transform="translate(-10.466 -12.225)" fill="#f0862e"/>
</svg>
