<svg xmlns="http://www.w3.org/2000/svg" width="94.929" height="94.93" viewBox="0 0 94.929 94.93">
  <g id="cross-svgrepo-com" transform="translate(-0.002 0.002)">
    <path id="Path_10334" data-name="Path 10334" d="M55.931,47.463,94.306,9.09a2.118,2.118,0,0,0,0-2.994L88.833.62a2.12,2.12,0,0,0-3,0L47.463,38.994,9.089.62a2.18,2.18,0,0,0-2.995,0L.622,6.1a2.117,2.117,0,0,0,0,2.994L39,47.463.622,85.836a2.117,2.117,0,0,0,0,2.994L6.1,94.306a2.118,2.118,0,0,0,2.995,0L47.464,55.932,85.838,94.306a2.12,2.12,0,0,0,3,0l5.473-5.476a2.118,2.118,0,0,0,0-2.994Z" fill="#dc1d1d"/>
  </g>
</svg>
