<svg xmlns="http://www.w3.org/2000/svg" width="26.124" height="26.124" viewBox="0 0 26.124 26.124">
  <g id="cart-alt-svgrepo-com" transform="translate(-0.85 -0.85)">
    <path id="Path_10329" data-name="Path 10329" d="M19.787,22.574A1.787,1.787,0,1,0,18,20.787,1.787,1.787,0,0,0,19.787,22.574Z" transform="translate(3.059 3.251)" fill="none" stroke="#fff" stroke-linecap="round" stroke-linejoin="round" stroke-width="2.3"/>
    <path id="Path_10330" data-name="Path 10330" d="M9.787,22.574A1.787,1.787,0,1,0,8,20.787,1.787,1.787,0,0,0,9.787,22.574Z" transform="translate(1.147 3.251)" fill="none" stroke="#fff" stroke-linecap="round" stroke-linejoin="round" stroke-width="2.3"/>
    <path id="Path_10331" data-name="Path 10331" d="M18.7,4h6.552L22.868,17.1h-5.36M18.7,4,17.508,17.1M18.7,4H11.849m5.658,13.1H12.743M11.849,4H5L7.382,17.1h5.36M11.849,4l.893,13.1" transform="translate(0.574 0.382)" fill="none" stroke="#fff" stroke-linecap="round" stroke-linejoin="round" stroke-width="2.3"/>
    <path id="Path_10332" data-name="Path 10332" d="M5.574,4.382A3.484,3.484,0,0,0,2,2" fill="none" stroke="#fff" stroke-linecap="round" stroke-linejoin="round" stroke-width="2.3"/>
    <path id="Path_10333" data-name="Path 10333" d="M23.346,15H5.753C3.627,15,2.5,15.931,2.5,17.382s1.127,2.382,3.253,2.382h17" transform="translate(0.096 2.486)" fill="none" stroke="#fff" stroke-linecap="round" stroke-linejoin="round" stroke-width="2.3"/>
  </g>
</svg>
